<svg width="100" height="100" viewBox="0 0 100 100" fill="none" xmlns="http://www.w3.org/2000/svg">
<circle cx="50" cy="50" r="45" stroke="#AEDEFF" stroke-width="10"/>
<path fill-rule="evenodd" clip-rule="evenodd" d="M81.4971 74.6591C74.1803 83.9917 62.8055 89.9908 50.0292 90C50.007 90 49.9848 90 49.9626 90C38.0718 89.9891 27.3955 84.7898 20.0757 76.5438L12.5951 83.1794L12.6 83.1849C13.0412 83.6822 13.4919 84.1702 13.9516 84.6486C14.3882 85.1026 14.8332 85.5485 15.2865 85.9858C16.771 87.4179 18.341 88.7549 19.9867 89.9901C23.1347 92.3527 26.56 94.3424 30.1957 95.9107C36.4211 98.5961 43.1223 99.9851 49.8908 99.9999C49.9272 99.9999 49.9635 100 49.9999 100C50.0366 100 50.0732 99.9999 50.1098 99.9999C50.5843 99.9988 51.0592 99.991 51.5342 99.9764C58.859 99.7516 66.0449 97.9193 72.5831 94.6094C76.1157 92.821 79.4125 90.625 82.4097 88.0737C83.1726 87.4243 83.9162 86.7518 84.6393 86.0572C85.0965 85.6178 85.5454 85.1698 85.9858 84.7135C87.1733 83.4824 88.2995 82.1885 89.3589 80.8362L89.3696 80.8225L81.4971 74.6591Z" fill="#0098FF"/>
</svg>
